# xmcd
# 
# Track frame offsets:
#     150
#     18717
#     55927
#     78777
# 
# Disc length: 1496
# 
# Revision: 0
# Processed by: cddbd v1.5.2PL0 Copyright (c) Steve Scherf et al.
# Submitted via: fre:ac v1.0.17
# 
DISCID=2705d604
DTITLE=Degrees of Motion (featuring Biti) - Shine On
DYEAR=1994
DGENRE=Dance
TTITLE0=Shine On (Radiant edit)
TTITLE1=Shine On (Radiant remix)
TTITLE2=Shine On (Inspiration mix)
TTITLE3=Shine On (Junior Style dub)
EXTD=
EXTT0=
EXTT1=
EXTT2=
EXTT3=
PLAYORDER=
